<svg data-name="condor logo" xmlns="http://www.w3.org/2000/svg" viewBox="0 0 155.905 84.189"><path data-name="colour block" fill="#504c49" d="M0 0h155.905v84.189H0z"/><g fill="#f7ac00"><path d="M61.745 52.884c-6.332 0-9.1-4.722-9.031-10.711.071-6.018 3.604-10.758 9.715-10.758a12.062 12.062 0 0 1 5.037 1.032l-.764 2.695a10.271 10.271 0 0 0-3.736-.808c-2.668 0-5.766 1.562-5.802 7.672-.033 5.571 2.155 7.958 5.479 7.958a8.73 8.73 0 0 0 3.726-.899l.856 2.471a11.694 11.694 0 0 1-5.48 1.348"/><path d="M74.297 39.003c-2.11 0-3.099 1.707-3.099 5.75 0 4.045.944 5.702 3.054 5.704 2.113 0 3.055-1.663 3.055-5.704s-.899-5.75-3.01-5.75zm-.044 13.836c-3.996 0-7.053-2.247-7.053-8.086s3.057-8.083 7.053-8.084 7.05 2.246 7.05 8.084c0 5.839-3.053 8.083-7.05 8.086M86.89 36.93l.252 1.743a4.854 4.854 0 0 1 4.338-2.06c3.878 0 4.545 2.988 4.545 5.212v10.807h-3.75v-9.534c0-1.4.16-3.944-2.225-3.944-2.734 0-2.989 3.72-2.989 5.055v8.423h-3.75V36.93h3.579M104.82 50.395c2.86 0 2.86-4.767 2.86-5.69 0-1.907-.222-5.563-2.764-5.563-2.8 0-2.83 4.61-2.83 5.563 0 2.385.35 5.69 2.733 5.69zm6.61-18.738V52.62h-3.336l-.127-2.701c-.762 1.334-2.004 3.02-4.451 3.02-3.656 0-5.405-3.783-5.405-8.172 0-5.72 2.893-8.169 5.626-8.169a4.187 4.187 0 0 1 3.943 2.672v-7.613h3.75M120.517 39.01c-2.11 0-3.1 1.71-3.1 5.749 0 4.043.99 5.704 3.1 5.704s3.054-1.661 3.054-5.703c0-4.04-.941-5.748-3.054-5.75zm0 13.835c-3.997 0-7.052-2.247-7.052-8.085.002-5.84 3.054-8.083 7.052-8.083s7.007 2.243 7.007 8.083c0 5.838-3.01 8.085-7.007 8.085M132.858 36.924l.093 3.909c1.241-3.847 3.214-4.164 3.946-4.164a5.323 5.323 0 0 1 1.494.255l-.671 3.273a5.377 5.377 0 0 0-1.204-.19 2.743 2.743 0 0 0-2.195 1.144c-.764 1.05-1.083 2.226-1.083 5.85v5.626h-3.749V36.924h3.37M29.782 29.427a12.351 12.351 0 0 0-12.267 12.69 12.274 12.274 0 1 0 24.536 0 12.352 12.352 0 0 0-12.269-12.69zm0 24.216a11.184 11.184 0 0 1-11.126-11.501 11.134 11.134 0 1 1 22.252 0 11.183 11.183 0 0 1-11.126 11.5z"/><path d="M29.064 39.963h6.182l-3.114 2.51 1.145 1.103 6.497-5.05h-9.6a8.608 8.608 0 0 0-2.065.116 1.334 1.334 0 0 0-.876.72 1.592 1.592 0 0 0 .056 1.284 16.966 16.966 0 0 0 2.069 2.301c-1.264-.776-4.637-2.983-4.637-2.983h.938l-.001-1.438h-5.953L37.228 49.92v-2.004l-8.255-7.491c-.326-.301-.218-.463.091-.463z"/></g></svg>